<?xml version="1.0" encoding="utf-8"?>
<!-- Svg Vector Icons : http://www.onlinewebfonts.com/icon -->
<!DOCTYPE svg PUBLIC "-//W3C//DTD SVG 1.1//EN" "http://www.w3.org/Graphics/SVG/1.1/DTD/svg11.dtd">
<svg version="1.1" xmlns="http://www.w3.org/2000/svg" xmlns:xlink="http://www.w3.org/1999/xlink" x="0px" y="0px" viewBox="0 0 256 256" enable-background="new 0 0 256 256" xml:space="preserve">
<metadata> Svg Vector Icons : http://www.onlinewebfonts.com/icon </metadata>
<g><g><g><path fill="#000000" d="M53.6,14.2C44.8,24.8,39.3,36,36.3,50c-1.3,6.2-1.4,22.9-0.1,29.4c2.8,13.6,9.7,27.5,18.3,36.8l3,3.2l6-6l6-6l-3.1-3.8C51,85.1,47.9,60.1,58.4,38.5C61,33,65.8,26,68.6,23.3l1.4-1.2L64,16.1c-3.3-3.3-6.2-6.1-6.4-6.1C57.3,10,55.6,11.9,53.6,14.2z"/><path fill="#000000" d="M191.9,16.1l-6.1,6.1l1.4,1.2c2.8,2.6,7.5,9.6,10.3,15.1c10.5,21.5,7.3,46.7-8.1,65.4l-3.1,3.8l6,6l6,6l3.1-3.3c8.3-8.9,15-22.3,17.9-35.6c1.6-7.5,1.9-20.5,0.6-28.4c-2.5-14.6-8.1-26.7-17.6-38.1c-2-2.3-3.7-4.2-3.9-4.2C198.1,10,195.2,12.7,191.9,16.1z"/><path fill="#000000" d="M79.3,37.3C66.7,53.1,66.2,75,78.1,90.5c4,5.3,3.2,5.4,10.1-1.5l6.1-6.1l-1.6-1.8c-3.5-4-5.7-10.2-5.7-16.2c0-6.4,1.6-11.2,5.4-16.2l1.9-2.5l-6.1-6.1L81.9,34L79.3,37.3z"/><path fill="#000000" d="M167.7,40.2l-6.1,6.1l2.3,3.2c3.3,4.5,4.5,8,4.8,14c0.4,6.9-1.5,13.1-5.6,17.6l-1.6,1.8l6.1,6.1l6.1,6.2L175,94c0.7-0.6,2.5-3,3.9-5.2c10.7-16,9.7-36.5-2.4-51.4c-1.5-1.8-2.7-3.2-2.7-3.2C173.8,34.1,171.1,36.8,167.7,40.2z"/><path fill="#000000" d="M124.3,43.9c-14.2,1.9-24.2,15.9-21.3,29.8c0.5,2.1,1.4,5.1,2.2,6.6c2,4,6.8,8.9,10.7,11l3.3,1.7v76.5V246h8.5h8.5v-76.6V92.9l3.2-1.5c6.2-3,11.7-10.1,13.1-17.1C156.1,57,141.7,41.6,124.3,43.9z"/></g></g></g>
</svg>