<?xml version="1.0" encoding="UTF-8" standalone="no"?>
<!-- Created with Inkscape (http://www.inkscape.org/) -->

<svg
   width="31.749998mm"
   height="65.412453mm"
   viewBox="0 0 31.749998 65.412453"
   version="1.1"
   id="svg1"
   sodipodi:docname="anti-pollution.svg"
   inkscape:version="1.4 (e7c3feb1, 2024-10-09)"
   xmlns:inkscape="http://www.inkscape.org/namespaces/inkscape"
   xmlns:sodipodi="http://sodipodi.sourceforge.net/DTD/sodipodi-0.dtd"
   xmlns="http://www.w3.org/2000/svg"
   xmlns:svg="http://www.w3.org/2000/svg">
  <sodipodi:namedview
     id="namedview1"
     pagecolor="#ffffff"
     bordercolor="#000000"
     borderopacity="0.25"
     inkscape:showpageshadow="2"
     inkscape:pageopacity="0.0"
     inkscape:pagecheckerboard="0"
     inkscape:deskcolor="#d1d1d1"
     inkscape:document-units="mm"
     inkscape:zoom="1.572715"
     inkscape:cx="34.017606"
     inkscape:cy="102.68866"
     inkscape:window-width="1512"
     inkscape:window-height="916"
     inkscape:window-x="0"
     inkscape:window-y="38"
     inkscape:window-maximized="0"
     inkscape:current-layer="layer1">
    <inkscape:page
       x="0"
       y="0"
       width="31.749998"
       height="65.412453"
       id="page2"
       margin="0"
       bleed="0" />
  </sodipodi:namedview>
  <defs
     id="defs1" />
  <g
     inkscape:label="Layer 1"
     inkscape:groupmode="layer"
     id="layer1"
     transform="translate(-87.047913,-115.88749)">
    <path
       fill="none"
       stroke="#000000"
       stroke-width="2.64583px"
       d="m 88.370833,148.22703 v 31.75 H 117.475 v -31.75 q 0,-15.875 -14.55208,-30.42709 -14.552087,15.875 -14.552087,30.42709"
       id="path1"
       inkscape:export-filename="path1.svg"
       inkscape:export-xdpi="96"
       inkscape:export-ydpi="96"
       style="fill:#ffffff;fill-opacity:0.60000002" />
    <g
       id="g3691"
       transform="matrix(0.09117985,0,0,-0.09117985,75.440011,201.20793)">
      <circle
         id="path3635"
         style="fill:#ffff00;stroke:#000000;stroke-width:3"
         transform="matrix(0.65,0,0,0.65,241.5,482.33)"
         cx="90"
         cy="-107.63782"
         r="200" />
      <path
         id="path3656"
         sodipodi:rx="70"
         sodipodi:ry="70"
         style="fill:#000000"
         sodipodi:type="arc"
         d="m 370,412.36218 a 70,70 0 0 1 -35,60.62178 l -35,-60.62178 z"
         transform="matrix(1.4286,0,0,1.4286,-128.57,-176.73)"
         sodipodi:cy="412.36218"
         sodipodi:cx="300"
         sodipodi:end="1.0471976"
         sodipodi:start="0"
         sodipodi:arc-type="slice" />
      <path
         id="path3671"
         sodipodi:rx="70"
         sodipodi:ry="70"
         style="fill:#000000"
         sodipodi:type="arc"
         d="m 370,412.36218 a 70,70 0 0 1 -35,60.62178 l -35,-60.62178 z"
         transform="matrix(-1.4286,0,0,1.4286,728.57,-176.73)"
         sodipodi:cy="412.36218"
         sodipodi:cx="300"
         sodipodi:end="1.0471976"
         sodipodi:start="0"
         sodipodi:arc-type="slice" />
      <path
         id="path3673"
         sodipodi:rx="70"
         sodipodi:ry="70"
         style="fill:#000000"
         sodipodi:type="arc"
         d="m 370,412.36218 a 70,70 0 0 1 -35,60.62178 l -35,-60.62178 z"
         transform="matrix(-0.71429,-1.2372,1.2372,-0.71429,4.1198,1078.1)"
         sodipodi:cy="412.36218"
         sodipodi:cx="300"
         sodipodi:end="1.0471976"
         sodipodi:start="0"
         sodipodi:arc-type="slice" />
      <ellipse
         id="path2855"
         style="fill:#ffff00"
         transform="matrix(1,0,0,-0.75,220,691.63)"
         cx="80"
         cy="372.36218"
         rx="30"
         ry="40" />
      <circle
         id="path2851"
         style="fill:#000000"
         transform="matrix(1,0,0,-1,20,854.72)"
         cx="280"
         cy="442.36218"
         r="20" />
    </g>
  </g>
</svg>
