<?xml version="1.0" encoding="UTF-8" standalone="no"?>
<!-- Created with Inkscape (http://www.inkscape.org/) -->

<svg
   width="31.749998mm"
   height="65.412453mm"
   viewBox="0 0 31.749998 65.412453"
   version="1.1"
   id="svg1"
   sodipodi:docname="fishing.svg"
   inkscape:version="1.4 (e7c3feb1, 2024-10-09)"
   inkscape:export-filename="/Users/hoeken/Desktop/anchor alarm/png/fishing.png"
   inkscape:export-xdpi="397.6246"
   inkscape:export-ydpi="397.6246"
   xmlns:inkscape="http://www.inkscape.org/namespaces/inkscape"
   xmlns:sodipodi="http://sodipodi.sourceforge.net/DTD/sodipodi-0.dtd"
   xmlns="http://www.w3.org/2000/svg"
   xmlns:svg="http://www.w3.org/2000/svg">
  <sodipodi:namedview
     id="namedview1"
     pagecolor="#ffffff"
     bordercolor="#000000"
     borderopacity="0.25"
     inkscape:showpageshadow="2"
     inkscape:pageopacity="0.0"
     inkscape:pagecheckerboard="0"
     inkscape:deskcolor="#d1d1d1"
     inkscape:document-units="mm"
     inkscape:zoom="2.5241665"
     inkscape:cx="24.760648"
     inkscape:cy="138.06538"
     inkscape:window-width="1512"
     inkscape:window-height="916"
     inkscape:window-x="0"
     inkscape:window-y="38"
     inkscape:window-maximized="0"
     inkscape:current-layer="layer1">
    <inkscape:page
       x="0"
       y="0"
       width="31.749998"
       height="65.412453"
       id="page2"
       margin="0"
       bleed="0" />
  </sodipodi:namedview>
  <defs
     id="defs1">
    <rect
       x="29.77898"
       y="98.994987"
       width="59.55796"
       height="110.26271"
       id="rect1" />
  </defs>
  <g
     inkscape:label="Layer 1"
     inkscape:groupmode="layer"
     id="layer1"
     transform="translate(-87.047913,-115.88749)">
    <path
       fill="none"
       stroke="#000000"
       stroke-width="2.64583px"
       d="m 88.370833,148.22703 v 31.75 H 117.475 v -31.75 q 0,-15.875 -14.55208,-30.42709 -14.552087,15.875 -14.552087,30.42709"
       id="path1"
       inkscape:export-filename="path1.svg"
       inkscape:export-xdpi="96"
       inkscape:export-ydpi="96"
       style="fill:#ffffff;fill-opacity:0.60000002" />
    <path
       d="m 108.06079,172.23151 c -4.56706,-3.13981 -13.701017,-11.64587 -13.701017,-20.55154 0,-1.58006 0.179686,-3.00377 0.491278,-4.28156 m 2.933979,24.8331 c 4.56707,-3.13981 13.70102,-11.64587 13.70102,-20.55154 0,-1.58006 -0.17966,-3.00377 -0.49118,-4.28156 m 0,0 c -1.4446,-5.92484 -8.07196,-9.41945 -8.07196,-9.41945 0,0 -6.627317,3.49461 -8.071859,9.41945 m 16.143819,0 c -2.64858,1.71262 -9.5854,4.1103 -16.143819,0 m 5.502919,7.70682 c 0.85632,0.85632 3.08274,2.05515 5.13789,0"
       stroke="#000000"
       stroke-linecap="round"
       stroke-width="5.47872"
       id="path1-5"
       style="fill:none;stroke-width:1.87558;stroke-dasharray:none" />
    <path
       d="m 101.21644,144.82947 v -0.002"
       stroke="#000000"
       stroke-linecap="round"
       stroke-width="5.47872"
       id="path2"
       style="fill:none;stroke-width:1.87558;stroke-dasharray:none" />
  </g>
</svg>
