<?xml version="1.0" encoding="UTF-8" standalone="no"?>
<!-- Created with Inkscape (http://www.inkscape.org/) -->

<svg
   width="31.749998mm"
   height="65.412453mm"
   viewBox="0 0 31.749998 65.412453"
   version="1.1"
   id="svg1"
   sodipodi:docname="passenger.svg"
   inkscape:version="1.4 (e7c3feb1, 2024-10-09)"
   inkscape:export-filename="/Users/hoeken/Desktop/anchor alarm/png/passenger.png"
   inkscape:export-xdpi="397.6246"
   inkscape:export-ydpi="397.6246"
   xmlns:inkscape="http://www.inkscape.org/namespaces/inkscape"
   xmlns:sodipodi="http://sodipodi.sourceforge.net/DTD/sodipodi-0.dtd"
   xmlns="http://www.w3.org/2000/svg"
   xmlns:svg="http://www.w3.org/2000/svg">
  <sodipodi:namedview
     id="namedview1"
     pagecolor="#ffffff"
     bordercolor="#000000"
     borderopacity="0.25"
     inkscape:showpageshadow="2"
     inkscape:pageopacity="0.0"
     inkscape:pagecheckerboard="0"
     inkscape:deskcolor="#d1d1d1"
     inkscape:document-units="mm"
     inkscape:zoom="0.76134505"
     inkscape:cx="66.329977"
     inkscape:cy="0.65673245"
     inkscape:window-width="1512"
     inkscape:window-height="916"
     inkscape:window-x="0"
     inkscape:window-y="38"
     inkscape:window-maximized="0"
     inkscape:current-layer="layer1">
    <inkscape:page
       x="0"
       y="0"
       width="31.749998"
       height="65.412453"
       id="page2"
       margin="0"
       bleed="0" />
  </sodipodi:namedview>
  <defs
     id="defs1" />
  <g
     inkscape:label="Layer 1"
     inkscape:groupmode="layer"
     id="layer1"
     transform="translate(-87.047913,-115.88749)">
    <path
       fill="none"
       stroke="#000000"
       stroke-width="2.64583px"
       d="m 88.370833,148.22703 v 31.75 H 117.475 v -31.75 q 0,-15.875 -14.55208,-30.42709 -14.552087,15.875 -14.552087,30.42709"
       id="path1"
       inkscape:export-filename="path1.svg"
       inkscape:export-xdpi="96"
       inkscape:export-ydpi="96"
       style="fill:#ffffff;fill-opacity:0.60000002" />
    <circle
       transform="rotate(-75.000671)"
       cx="-111.16718"
       cy="138.29539"
       id="ellipse1"
       r="3.5428357"
       style="stroke-width:0.398072" />
    <path
       d="m 112.94547,150.55795 c -0.59712,-0.15923 -1.19425,0.15924 -1.39329,0.79617 l -2.98563,11.02691 c -0.4777,1.95061 -2.18946,3.38371 -4.14006,3.54294 -0.15924,0 -0.39809,0 -0.39809,0 h -4.299299 c -0.63693,0 -1.11463,0.4777 -1.11463,1.11463 0.0398,0.67675 0.5175,1.15444 1.15444,1.15444 h 4.299299 c 0,0 0.31847,0 0.59713,-0.0398 2.94581,-0.23885 5.37412,-2.30888 6.13048,-5.21489 l 2.94581,-11.02691 c 0.15924,-0.55732 -0.19903,-1.15444 -0.79616,-1.35348 z"
       id="path1-5"
       style="stroke-width:0.398084" />
    <path
       d="m 104.18763,164.13259 c 1.35349,-0.0796 2.42831,-1.03501 2.74678,-2.30888 l 3.06524,-11.34537 c 0.27866,-1.07483 -0.35827,-2.18946 -1.4331,-2.42831 -0.0796,0 -0.43789,-0.0398 -0.43789,-0.0398 -2.8662,-0.27866 -5.61297,1.51272 -6.36933,4.41872 0,0.0399 -0.11942,0.47771 -0.15924,0.67675 -0.59712,2.26908 -0.91559,4.49834 -1.07482,6.7276 h -5.931442 c -0.517514,0 -1.114636,0.23885 -1.552527,0.67675 -0.43789,0.39808 -0.278659,1.79137 -0.278659,2.34869 v 10.23074 c 0,1.23406 0.597123,1.4331 1.831186,1.4331 1.234056,0 2.229263,-0.99521 2.229263,-2.22926 v -8.16072 h 7.085889 z"
       id="path2"
       style="stroke-width:0.398084" />
  </g>
</svg>
