<?xml version="1.0" encoding="UTF-8" standalone="no"?>
<!-- Created with Inkscape (http://www.inkscape.org/) -->

<svg
   width="31.749998mm"
   height="65.412453mm"
   viewBox="0 0 31.749998 65.412453"
   version="1.1"
   id="svg1"
   sodipodi:docname="police.svg"
   inkscape:version="1.4 (e7c3feb1, 2024-10-09)"
   inkscape:export-filename="/Users/hoeken/Desktop/anchor alarm/png/police.png"
   inkscape:export-xdpi="397.6246"
   inkscape:export-ydpi="397.6246"
   xmlns:inkscape="http://www.inkscape.org/namespaces/inkscape"
   xmlns:sodipodi="http://sodipodi.sourceforge.net/DTD/sodipodi-0.dtd"
   xmlns="http://www.w3.org/2000/svg"
   xmlns:svg="http://www.w3.org/2000/svg">
  <sodipodi:namedview
     id="namedview1"
     pagecolor="#ffffff"
     bordercolor="#000000"
     borderopacity="0.25"
     inkscape:showpageshadow="2"
     inkscape:pageopacity="0.0"
     inkscape:pagecheckerboard="0"
     inkscape:deskcolor="#d1d1d1"
     inkscape:document-units="mm"
     inkscape:zoom="2.3460924"
     inkscape:cx="31.328689"
     inkscape:cy="154.086"
     inkscape:window-width="1512"
     inkscape:window-height="916"
     inkscape:window-x="0"
     inkscape:window-y="38"
     inkscape:window-maximized="0"
     inkscape:current-layer="layer1">
    <inkscape:page
       x="0"
       y="0"
       width="31.749998"
       height="65.412453"
       id="page2"
       margin="0"
       bleed="0" />
  </sodipodi:namedview>
  <defs
     id="defs1" />
  <g
     inkscape:label="Layer 1"
     inkscape:groupmode="layer"
     id="layer1"
     transform="translate(-87.047913,-115.88749)">
    <path
       fill="none"
       stroke="#000000"
       stroke-width="2.64583px"
       d="m 88.370833,148.22703 v 31.75 H 117.475 v -31.75 q 0,-15.875 -14.55208,-30.42709 -14.552087,15.875 -14.552087,30.42709"
       id="path1"
       inkscape:export-filename="path1.svg"
       inkscape:export-xdpi="96"
       inkscape:export-ydpi="96"
       style="fill:#ffffff;fill-opacity:0.60000002" />
    <path
       d="m 113.56445,160.21452 c 1.12614,7.86636 -5.57595,8.45973 -6.54568,8.91039 -2.18288,0.76151 -3.93562,2.19753 -3.93562,2.19753 0,0 -1.42625,-1.24637 -3.564158,-2.19753 -1.009807,-0.41644 -8.375655,-1.06945 -7.24756,-8.91039 0.237539,-1.12906 1.54257,-2.07925 1.54257,-3.98059 0,-1.90133 -1.603183,-4.09887 -1.603183,-4.09887 l 4.574949,-4.39604 c 0,0 1.604156,1.13102 3.030401,1.13102 1.426251,0 3.266981,-1.13102 3.266981,-1.13102 0,0 1.8417,1.13102 3.20734,1.13102 1.36661,0 3.03041,-1.13102 3.03041,-1.13102 l 4.26897,4.33739 c 0,0 -1.60319,2.26107 -1.60319,4.15851 0,1.89742 1.29135,2.79286 1.57777,3.9796 z m -10.54583,-8.56627 c -4.012839,0 -7.266132,3.55534 -7.266132,7.5682 0,4.01284 3.25232,6.96309 7.266132,6.96309 4.01188,0 7.26614,-2.95025 7.26614,-6.96309 -9.3e-4,-4.01286 -3.25426,-7.5682 -7.26614,-7.5682 z m 0.04,14.10703 c -3.744988,0 -6.78224,-3.0353 -6.78224,-6.78126 0,-3.74501 3.036279,-6.78128 6.78224,-6.78128 3.74598,0 6.78128,3.0353 6.78128,6.78128 -9.4e-4,3.74596 -3.03627,6.78126 -6.78128,6.78126 z m 4.08911,-9.84198 c -0.38711,0 -0.69895,0.31086 -0.70579,0.69601 h -1.94044 l -1.01861,-1.76447 c 0.19453,-0.12611 0.33139,-0.33531 0.33139,-0.58458 0,-0.39102 -0.31673,-0.70872 -0.70873,-0.70872 -0.39199,0 -0.70873,0.31672 -0.70873,0.70872 0,0.26687 0.15446,0.49269 0.37441,0.61292 l -1.00199,1.73516 h -2.000071 c -0.007,-0.38516 -0.318679,-0.69602 -0.70579,-0.69602 -0.391022,0 -0.708727,0.31673 -0.708727,0.70774 0,0.39102 0.316732,0.70873 0.708727,0.70873 0.126109,0 0.238522,-0.042 0.341168,-0.0997 l 1.002973,1.73711 -1.015678,1.75862 c -0.09972,-0.0538 -0.20822,-0.0919 -0.328463,-0.0919 -0.391022,0 -0.708727,0.31672 -0.708727,0.70872 0,0.38906 0.316732,0.70677 0.708727,0.70677 0.390049,0 0.70774,-0.31673 0.70774,-0.70677 0,-0.007 -0.003,-0.0117 -0.003,-0.0196 h 2.001041 l 1.01372,1.75861 c -0.22581,0.11634 -0.38613,0.34704 -0.38613,0.62074 0,0.39103 0.31673,0.70873 0.70872,0.70873 0.39201,0 0.70873,-0.31672 0.70873,-0.70873 0,-0.25611 -0.14272,-0.46824 -0.3441,-0.59141 l 1.03132,-1.78696 h 1.91208 c 0,0.007 -0.004,0.0117 -0.004,0.0196 0,0.38906 0.31771,0.70677 0.70873,0.70677 0.39102,0 0.70872,-0.31673 0.70872,-0.70677 0,-0.39102 -0.31673,-0.70873 -0.70872,-0.70873 -0.0929,0 -0.18183,0.0195 -0.26297,0.0518 l -0.99319,-1.71853 0.98635,-1.70876 c 0.0919,0.043 0.19062,0.0703 0.29913,0.0703 0.39102,0 0.70872,-0.31672 0.70872,-0.70873 0,-0.38905 -0.31672,-0.70676 -0.70872,-0.70676 z"
       id="path1-0"
       style="stroke-width:0.97755" />
  </g>
</svg>
